<?xml version="1.0" standalone="no"?>
<!DOCTYPE svg PUBLIC "-//W3C//DTD SVG 20010904//EN"
 "http://www.w3.org/TR/2001/REC-SVG-20010904/DTD/svg10.dtd">
<svg version="1.0" xmlns="http://www.w3.org/2000/svg"
 width="1200.000000pt" height="1200.000000pt" viewBox="0 0 1200.000000 1200.000000"
 preserveAspectRatio="xMidYMid meet">
<metadata>
Created by potrace 1.11, written by Peter Selinger 2001-2013
</metadata>
<g transform="translate(0.000000,1200.000000) scale(0.100000,-0.100000)"
fill="#000000" stroke="none">
<path d="M426 7735 c-75 -27 -126 -81 -146 -156 -7 -26 -10 -342 -8 -941 3
-846 5 -906 22 -958 74 -220 227 -363 452 -420 74 -19 112 -20 941 -20 l863 0
0 225 0 224 -852 3 c-832 3 -854 3 -887 23 -19 11 -43 33 -55 48 -21 28 -21
34 -24 778 l-2 749 910 0 910 0 0 230 0 230 -1042 0 c-869 -1 -1050 -3 -1082
-15z"/>
<path d="M3133 7734 c-50 -18 -95 -60 -123 -113 -20 -40 -20 -54 -20 -1128 0
-1038 1 -1090 19 -1128 10 -22 31 -52 47 -67 65 -61 15 -58 1046 -58 1019 0
989 -1 1102 54 103 51 210 170 249 276 33 92 38 136 38 291 -1 131 -5 174 -25
252 -48 188 -149 335 -312 453 l-28 21 31 49 c43 68 79 153 106 248 29 109 32
408 5 497 -36 115 -137 235 -247 293 -144 75 -80 70 -1011 73 -719 2 -841 0
-877 -13z m1673 -470 c26 -25 26 -27 22 -147 -3 -112 -6 -127 -34 -187 -54
-110 -141 -177 -263 -200 -31 -6 -235 -10 -482 -10 l-429 0 0 -230 0 -229 573
-3 572 -3 63 -29 c79 -36 152 -114 183 -194 19 -47 23 -77 23 -174 1 -109 -1
-119 -22 -140 l-23 -23 -772 0 -772 0 -3 798 -2 797 670 0 671 0 25 -26z"/>
<path d="M5817 7172 c-10 -10 -17 -28 -17 -39 0 -11 85 -256 189 -544 103
-288 250 -697 326 -909 76 -212 147 -398 158 -413 16 -23 25 -28 55 -25 28 2
41 10 58 35 19 29 99 244 466 1258 72 198 134 364 138 368 4 4 60 -138 124
-315 424 -1161 484 -1322 503 -1335 26 -20 70 -16 92 9 25 26 6 -25 372 988
165 459 302 851 302 871 1 20 -4 44 -12 53 -14 16 -57 21 -77 8 -22 -14 -55
-95 -160 -389 -58 -164 -132 -370 -163 -458 -32 -88 -114 -316 -182 -507 -68
-192 -126 -348 -129 -348 -3 0 -37 87 -74 193 -133 377 -448 1264 -483 1362
-49 135 -65 157 -111 153 -44 -4 -65 -35 -113 -173 -17 -49 -82 -232 -144
-405 -62 -173 -177 -495 -255 -715 -78 -220 -146 -406 -149 -412 -4 -7 -50
110 -103 260 -54 149 -182 513 -287 807 -206 583 -213 600 -236 624 -22 21
-68 20 -88 -2z"/>
<path d="M9792 7164 l-22 -15 0 -938 c0 -925 0 -938 20 -956 27 -25 80 -22
102 6 16 19 18 49 18 299 l0 279 128 70 c71 39 132 71 136 71 4 0 101 -84 214
-187 509 -461 623 -563 633 -563 3 0 20 5 37 11 31 11 44 35 35 69 -3 11 -182
178 -399 370 -216 193 -396 354 -398 359 -3 4 108 75 247 157 138 82 312 185
386 229 74 44 139 87 144 96 16 26 0 68 -29 75 -31 8 29 41 -602 -327 l-527
-307 -3 591 c-2 532 -4 592 -19 609 -20 22 -71 23 -101 2z"/>
<path d="M9049 7041 c-42 -43 -41 -99 3 -136 26 -22 39 -26 71 -22 21 3 50 16
63 28 57 53 10 159 -71 159 -27 0 -44 -8 -66 -29z"/>
<path d="M11560 7057 c-60 -30 -64 -123 -7 -157 54 -33 116 -20 143 31 17 34
18 50 2 84 -22 48 -87 68 -138 42z"/>
<path d="M910 6490 l0 -230 718 2 717 3 3 228 2 227 -720 0 -720 0 0 -230z"/>
<path d="M9066 6565 c-8 -9 -18 -30 -21 -48 -3 -18 -5 -305 -3 -639 3 -678 -1
-640 73 -640 74 0 70 -41 70 666 0 609 -1 635 -19 655 -23 25 -77 28 -100 6z"/>
<path d="M11561 6561 c-21 -21 -21 -28 -21 -654 0 -506 3 -637 13 -651 20 -27
86 -24 109 4 17 21 18 61 18 644 0 479 -3 627 -13 646 -17 34 -77 40 -106 11z"/>
<path d="M2598 4773 c-127 -2 -208 -7 -208 -13 0 -6 13 -10 29 -10 61 0 61 2
60 -363 -1 -183 -4 -343 -8 -357 -4 -16 -15 -26 -31 -28 -14 -2 -29 -7 -33
-11 -9 -9 379 -23 410 -15 17 5 23 16 28 53 3 25 8 54 10 63 7 35 -13 26 -28
-12 -20 -51 -50 -63 -149 -58 -108 4 -107 4 -108 201 l0 157 78 0 c91 0 126
-14 130 -53 4 -33 22 -36 22 -4 0 12 3 46 7 76 l6 53 -31 -16 c-22 -11 -58
-16 -122 -16 l-90 0 0 156 0 157 97 -5 c85 -5 99 -8 115 -28 10 -12 18 -31 18
-41 0 -10 5 -19 10 -19 6 0 10 17 10 39 0 21 3 53 6 70 5 23 3 30 -7 29 -8 -2
-107 -4 -221 -5z"/>
<path d="M7484 4761 c4 -6 20 -11 36 -11 19 0 33 -7 40 -19 13 -26 14 -670 0
-705 -7 -19 -17 -26 -35 -26 -14 0 -25 -4 -25 -9 0 -14 268 -19 332 -6 109 22
179 95 186 195 7 100 -36 178 -122 222 -23 11 -43 22 -45 24 -1 1 9 15 23 31
69 74 84 175 37 242 -42 59 -68 66 -260 69 -123 3 -171 1 -167 -7z m304 -41
c59 -36 86 -140 57 -215 -23 -61 -46 -75 -122 -75 l-63 0 0 149 c0 110 3 151
13 154 29 12 84 6 115 -13z m-7 -330 c20 -6 52 -26 72 -46 119 -119 96 -309
-39 -330 -57 -8 -110 2 -135 27 -17 17 -19 34 -19 189 l0 170 43 0 c23 0 58
-5 78 -10z"/>
<path d="M8801 4648 c-128 -333 -235 -598 -250 -618 -11 -16 -30 -26 -49 -28
-18 -2 -32 -7 -32 -13 0 -5 47 -9 106 -9 67 0 103 4 99 10 -3 6 -15 10 -26 10
-28 0 -24 39 14 140 l33 85 110 3 110 3 43 -106 c27 -66 40 -112 36 -125 -6
-19 -2 -20 95 -20 65 0 99 4 95 10 -3 6 -17 10 -29 10 -42 0 -72 47 -144 223
-39 95 -95 233 -125 307 -31 74 -60 136 -66 138 -6 2 -15 -7 -20 -20z m53
-253 c25 -66 44 -120 43 -121 -5 -5 -153 -10 -168 -7 -16 5 -11 23 67 242 7
20 9 16 58 -114z"/>
<path d="M9399 4660 c-101 -17 -149 -69 -149 -159 0 -29 6 -64 14 -79 18 -33
81 -94 163 -156 81 -61 103 -90 103 -137 0 -83 -42 -119 -138 -119 -76 0 -123
28 -136 83 -15 58 -26 44 -26 -33 l0 -69 38 -10 c52 -15 180 -13 225 3 50 18
76 42 98 91 48 105 0 202 -153 306 -110 75 -143 131 -112 190 9 18 31 37 52
46 71 29 182 -6 182 -58 0 -39 18 -26 24 18 10 72 10 71 -41 78 -27 3 -59 8
-73 10 -14 1 -46 -1 -71 -5z"/>
<path d="M3078 4658 c-1 -2 -5 -149 -8 -328 l-5 -325 -25 -3 c-14 -2 -29 -8
-35 -13 -5 -5 35 -9 104 -9 72 0 110 4 106 10 -3 6 -17 10 -29 10 -13 0 -29 6
-35 14 -13 15 -20 126 -24 363 l-2 132 265 -270 c146 -148 271 -269 278 -269
9 0 12 70 12 318 0 174 4 322 8 327 4 6 18 16 32 22 21 10 7 12 -80 12 -92 -1
-101 -2 -73 -12 18 -7 36 -16 42 -22 5 -5 13 -122 17 -259 l7 -249 -79 84
c-44 45 -138 144 -210 218 -72 75 -155 162 -184 194 -44 48 -72 66 -82 55z"/>
<path d="M4000 4652 c-122 -4 -132 -5 -100 -16 l35 -13 3 -292 c2 -303 -1
-331 -38 -331 -11 0 -20 -4 -20 -9 0 -13 337 -24 398 -12 85 17 148 49 197
102 61 66 86 124 92 219 12 170 -76 292 -240 334 -74 18 -146 22 -327 18z
m278 -60 c74 -29 124 -72 163 -144 31 -58 34 -69 34 -153 -1 -143 -50 -222
-165 -266 -45 -17 -71 -20 -149 -17 -138 6 -131 -12 -131 323 0 209 3 275 13
279 26 12 184 -3 235 -22z"/>
<path d="M5000 4607 c-12 -58 -3 -81 17 -43 19 37 50 46 149 46 l84 0 -1 -257
c-1 -299 -5 -346 -34 -351 -11 -2 -24 -8 -29 -13 -6 -5 39 -9 112 -9 75 0 122
4 122 10 0 6 -13 10 -29 10 -54 0 -56 8 -59 322 l-3 288 78 -1 c103 -1 125 -8
144 -47 21 -41 29 -31 29 37 l0 56 -285 0 -284 0 -11 -48z"/>
<path d="M6745 4650 c-136 -3 -181 -8 -160 -14 17 -5 33 -14 37 -20 9 -13 10
-561 2 -593 -4 -16 -14 -23 -30 -23 -13 0 -24 -4 -24 -10 0 -6 71 -10 194 -10
216 0 197 -6 210 72 4 21 2 39 -4 43 -5 3 -10 -1 -10 -10 0 -9 -11 -27 -25
-40 -22 -22 -33 -25 -104 -25 -111 0 -111 0 -111 165 l0 133 83 -5 c87 -6 107
-14 107 -44 0 -11 5 -19 10 -19 6 0 10 12 10 28 0 15 3 44 7 66 5 35 5 38 -13
29 -10 -6 -61 -13 -111 -16 l-93 -6 0 130 0 129 81 0 c88 0 119 -10 119 -40 0
-28 19 -34 24 -8 13 65 14 98 3 96 -7 -1 -97 -5 -202 -8z"/>
<path d="M5700 4640 c8 -5 25 -10 37 -10 19 0 22 -7 28 -53 9 -70 1 -537 -9
-559 -5 -10 -16 -18 -26 -18 -11 0 -22 -4 -25 -10 -4 -6 37 -10 114 -10 74 0
121 4 121 10 0 6 -12 10 -27 10 -55 0 -57 6 -61 174 l-4 156 196 0 196 0 1
-107 c2 -199 -2 -223 -31 -223 -10 0 -22 -4 -25 -10 -4 -6 37 -10 116 -10 76
0 119 4 114 9 -6 5 -23 11 -40 13 -21 2 -31 10 -36 28 -9 34 -11 572 -1 586 4
6 21 16 37 22 24 8 7 10 -90 10 -108 0 -117 -1 -85 -12 l35 -13 3 -126 3 -127
-196 0 -195 0 0 99 c0 121 7 161 29 161 9 0 23 5 31 10 10 7 -24 10 -105 10
-81 0 -115 -3 -105 -10z"/>
<path d="M8207 4638 c18 -6 34 -19 37 -32 8 -30 5 -546 -3 -576 -4 -15 -15
-26 -29 -28 -12 -2 -22 -8 -22 -13 0 -5 51 -9 115 -9 70 0 115 4 115 10 0 6
-13 10 -29 10 -16 0 -33 6 -39 13 -9 11 -15 300 -12 579 0 22 7 31 33 42 30
13 25 14 -83 14 -92 0 -109 -2 -83 -10z"/>
</g>
</svg>
