<?xml version="1.0" standalone="no"?>
<!DOCTYPE svg PUBLIC "-//W3C//DTD SVG 20010904//EN"
 "http://www.w3.org/TR/2001/REC-SVG-20010904/DTD/svg10.dtd">
<svg version="1.0" xmlns="http://www.w3.org/2000/svg"
 width="500.000000pt" height="500.000000pt" viewBox="0 0 500.000000 500.000000"
 preserveAspectRatio="xMidYMid meet">
<metadata>
Created by potrace 1.11, written by Peter Selinger 2001-2013
</metadata>
<g transform="translate(0.000000,500.000000) scale(0.100000,-0.100000)"
fill="#000000" stroke="none">
<path d="M433 3540 c-54 -13 -97 -44 -128 -95 l-30 -48 0 -851 c0 -686 3 -862
14 -906 17 -68 62 -160 109 -222 65 -86 198 -168 305 -189 28 -5 362 -9 777
-9 l728 0 7 106 c6 79 3 252 -5 312 0 1 -328 2 -730 2 l-729 0 -36 31 c-19 17
-40 47 -45 67 -7 25 -10 259 -8 712 l3 675 771 3 771 2 7 50 c4 28 6 120 5
205 -1 122 -4 155 -15 159 -22 9 -1735 5 -1771 -4z"/>
<path d="M2731 3538 c-44 -12 -78 -39 -110 -86 l-26 -37 0 -1035 0 -1035 24
-35 c37 -53 74 -79 132 -90 70 -13 1446 -13 1563 0 114 13 181 45 260 124 66
64 95 113 129 211 29 83 31 363 3 470 -42 159 -117 288 -224 385 l-67 60 31
57 c133 248 150 598 39 788 -52 90 -150 169 -256 207 l-64 23 -700 2 c-445 1
-713 -2 -734 -9z m1376 -418 c48 -17 56 -44 51 -171 -3 -97 -8 -123 -30 -170
-46 -100 -121 -159 -229 -179 -28 -6 -213 -10 -411 -10 l-358 0 2 -207 3 -208
480 -5 c461 -5 482 -6 526 -26 132 -61 199 -183 199 -362 0 -79 -10 -118 -34
-134 -6 -4 -307 -8 -668 -8 l-658 0 0 738 c0 406 3 742 7 745 11 12 1087 8
1120 -3z"/>
<path d="M820 2380 l0 -210 610 0 610 0 0 210 0 210 -610 0 -610 0 0 -210z"/>
</g>
</svg>
